<svg xmlns="http://www.w3.org/2000/svg" viewBox="0 0 256 256" xml:space="preserve"><path d="M124.3 54.8V100L96.9 72.5 69.7 45.4l-8.3 8-8 8.3 33 33 33.3 33.3-33.3 33.3-33 33 8 8.3 8.3 8 27.1-27.1 27.4-27.4v45.1c0 41 .6 44.8 5.3 44.8 2.7 0 20.4-15.3 38.9-33.9l33.9-33.9-25.1-25.1-24.9-25.1 24.5-24.5C190.1 90.2 201 77.9 201 76.4c0-1.8-14.2-17.4-31.9-34.8C147.9 20.3 135.2 10 130.8 10c-6.5 0-6.5.3-6.5 44.8zm34.5 34L147.9 100V55.7l10.9 11.2 11.2 11-11.2 10.9zm0 100.3-10.9 11.2V156l10.9 11.2 11.2 10.9-11.2 11z"/></svg>