<svg xmlns="http://www.w3.org/2000/svg" viewBox="0 0 256 256" xml:space="preserve"><path d="M124.5 10.8c-1.2 1-22.9 48.5-22.9 50 0 .6.5 1.7 1.2 2.3 1.1 1.2 1.2 1.2 10.7 1.2h9.5l-.1 53.2-.1 53.3-14.7.1-14.7.1.1-17.9.1-17.9 2.4-.8c5.7-2 10.2-6 12.8-11.4 1.4-3 1.5-3.5 1.5-8.4 0-4.3-.2-5.7-1-7.9-2.2-5.3-6.8-9.9-12.1-12-2.1-.9-3.6-1-7.6-1-4.8 0-5.1 0-8.7 1.7-17.3 8.3-15.9 32.9 2.3 39.1l2.4.8.2 20.5.2 20.6 1.1.9c1 .9 2.1.9 18.4.9H123v13.3l-2.6.5c-7.1 1.5-14.7 7.4-18.1 14.2-5.5 10.9-3.6 22.9 5 31.5 5.8 5.9 11.6 8.3 19.8 8.2 3.9 0 5.4-.2 8.3-1.2 11.3-4 18.6-14.2 18.6-26.1 0-12.5-7.8-22.6-20.3-26.4l-3.3-1v-41.4l20.6-.2c19.9-.2 20.6-.3 21.3-1.2.6-.8.7-3.5.8-17.5v-16.5h6c5.7 0 6.1 0 7.1-1.2l1.2-1.1V80.6l-1.1-1c-1.1-1-1.3-1-16.9-1-15.2 0-15.9 0-16.8 1-.9.9-1 1.6-1 16.9v16l1.2 1c1.1.9 1.9 1 7.2 1h5.9l-.1 13.9-.1 14h-35.3l-.1-39V64.5h9.4c8.8 0 9.5 0 10.7-1 .9-.7 1.2-1.4 1.2-2.5 0-2-21.1-48.3-22.7-49.8-1.4-1.4-3.1-1.5-4.4-.4zm10.3 29.6c4 8.8 7.2 16 7.1 16.1 0 .1-7 .1-15.4 0l-15.2-.1 7.6-16.8c5.9-12.9 7.8-16.6 8.1-16 .3.5 3.8 8 7.8 16.8zm45.3 55.9.1 10.4h-21.4V96.5c0-5.6.1-10.3.3-10.5.2-.1 5-.2 10.6-.2l10.3.1.1 10.4zm-85.7 5.4c7.1 2.5 10.8 11.2 7.7 18.1-3.2 7.1-11.4 10.2-18.3 6.8-4.7-2.3-7.5-6.6-7.6-11.7-.1-6.2 3.2-11.1 8.9-13.3 2-.8 6.9-.8 9.3.1zm40.4 98.9c7.7 3.5 12.8 12.3 11.7 20.2-1.9 13.7-16 21.8-28.1 16.1-12.4-5.9-15.6-21.9-6.2-31.9 4.1-4.3 9.2-6.4 15.4-6.1 3.2.1 4.5.4 7.2 1.7z"/></svg>